<?xml version="1.0" encoding="UTF-8"?>
<svg width="260px" height="189px" viewBox="0 0 260 189" version="1.1" xmlns="http://www.w3.org/2000/svg" xmlns:xlink="http://www.w3.org/1999/xlink">
    <!-- Generator: Sketch 45.1 (43504) - http://www.bohemiancoding.com/sketch -->
    <title>icon_iMac</title>
    <desc>Created with Sketch.</desc>
    <defs>
        <rect id="path-1" x="0" y="20.5604382" width="61.6813147" height="4.28342463" rx="2.14171231"></rect>
        <polygon id="path-2" points="8.99519172 0 52.6861229 0 58.6829174 21.4171231 2.99839724 21.4171231"></polygon>
        <polygon id="path-3" points="5.81227773 0 48.1588726 0 53.9711503 19.7037533 0 19.7037533"></polygon>
        <rect id="path-5" x="0" y="0" width="10.2802191" height="5.99679448" rx="2.99839724"></rect>
        <rect id="path-6" x="12.4219314" y="0" width="10.2802191" height="5.99679448" rx="2.99839724"></rect>
        <rect id="path-7" x="24.8438629" y="0" width="10.2802191" height="5.99679448" rx="2.99839724"></rect>
        <rect id="path-8" x="85.6684926" y="0" width="10.2802191" height="5.99679448" rx="2.99839724"></rect>
        <rect id="path-9" x="98.090424" y="0" width="10.2802191" height="5.99679448" rx="2.99839724"></rect>
        <rect id="path-10" x="139.639643" y="0" width="10.2802191" height="5.99679448" rx="2.99839724"></rect>
        <rect id="path-11" x="127.217711" y="0" width="10.2802191" height="5.99679448" rx="2.99839724"></rect>
        <rect id="path-12" x="114.79578" y="0" width="10.2802191" height="5.99679448" rx="2.99839724"></rect>
        <rect id="path-13" x="37.2657943" y="0" width="46.260986" height="5.99679448" rx="2.99839724"></rect>
        <rect id="path-14" x="0" y="0" width="162.770136" height="8.56684926" rx="4.28342463"></rect>
        <rect id="path-15" x="0" y="0" width="13.7069588" height="22.2738081" rx="6.85347941"></rect>
        <rect id="path-16" x="2.57005478" y="2.57005478" width="8.56684926" height="17.1336985" rx="4.28342463"></rect>
        <path d="M6.85347941,28.8423118 C6.85347941,26.6340294 8.64490799,24.8438629 10.8537394,24.8438629 L33.6938767,24.8438629 C35.9031593,24.8438629 37.6941367,26.6259327 37.6941367,28.8423118 L37.6941367,47.9644524 C37.6941367,56.4863343 30.792093,63.3946845 22.2738081,63.3946845 L22.2738081,63.3946845 C13.7573957,63.3946845 6.85347941,56.4914488 6.85347941,47.9644524 L6.85347941,28.8423118 Z" id="path-17"></path>
        <rect id="path-18" x="0" y="0" width="186.757314" height="131.929479" rx="18"></rect>
        <rect id="path-19" x="8.56684926" y="8.56684926" width="169.623615" height="101.945506"></rect>
        <rect id="path-20" x="0" y="0" width="167.910245" height="100.232136"></rect>
        <circle id="path-22" cx="93.3786569" cy="120.792575" r="4.28342463"></circle>
        <rect id="path-23" x="0" y="0" width="50.5444106" height="71.1048488" rx="4"></rect>
        <filter x="-67.3%" y="-36.6%" width="234.5%" height="195.6%" filterUnits="objectBoundingBox" id="filter-24">
            <feOffset dx="0" dy="8" in="SourceAlpha" result="shadowOffsetOuter1"></feOffset>
            <feGaussianBlur stdDeviation="10" in="shadowOffsetOuter1" result="shadowBlurOuter1"></feGaussianBlur>
            <feComposite in="shadowBlurOuter1" in2="SourceAlpha" operator="out" result="shadowBlurOuter1"></feComposite>
            <feColorMatrix values="0 0 0 0 0.77254902   0 0 0 0 0.811764706   0 0 0 0 0.870588235  0 0 0 0.5 0" type="matrix" in="shadowBlurOuter1"></feColorMatrix>
        </filter>
    </defs>
    <g id="Page-1" stroke="none" stroke-width="1" fill="none" fill-rule="evenodd">
        <g id="Desktop-HD" transform="translate(-200.000000, -1223.000000)">
            <g id="how-it-works" transform="translate(130.000000, 1081.000000)">
                <g id="icon_iMac" transform="translate(70.000000, 142.000000)">
                    <path d="M187.327043,128.544622 C187.327043,128.544622 165.536793,138.625729 176.431918,146.968368 C187.327043,155.311006 213.832508,162.313942 218.749142,174.233369" id="Mouse-Wire" stroke="#C5CFDE" stroke-width="2"></path>
                    <g id="Leg" transform="translate(100.232136, 131.201684)">
                        <g id="Substrate">
                            <use fill="#FFFFFF" fill-rule="evenodd" xlink:href="#path-1"></use>
                            <rect stroke="#C5CFDE" stroke-width="2" x="1" y="21.5604382" width="59.6813147" height="2.28342463" rx="1.14171231"></rect>
                        </g>
                        <g id="Leg-Form">
                            <use fill="#FFFFFF" fill-rule="evenodd" xlink:href="#path-2"></use>
                            <path stroke="#C5CFDE" stroke-width="2" d="M9.75365212,1 L4.31685764,20.4171231 L57.364457,20.4171231 L51.9276625,1 L9.75365212,1 Z"></path>
                        </g>
                        <g id="Leg-Mask" transform="translate(3.855082, 0.856685)">
                            <mask id="mask-4" fill="white">
                                <use xlink:href="#path-3"></use>
                            </mask>
                            <use id="Mask" fill="#FFFFFF" xlink:href="#path-3"></use>
                            <polygon id="Path-2" fill="#E0E4EC" mask="url(#mask-4)" points="5.56845202 0 48.4026983 0 49.2593832 2.57005478 3.85508217 6.42513694"></polygon>
                        </g>
                    </g>
                    <g id="Mouse" transform="translate(199.607588, 171.037533)">
                        <path d="M8.99519172,16.2770136 C15.4203287,16.2770136 26.1288902,16.2770136 26.1288902,16.2770136 C26.1288902,16.2770136 36.4091094,16.2770136 36.4091094,9.85187665 C36.4091094,3.4267397 26.1288902,0 17.562041,0 C8.99519172,0 6.45356962e-16,4.71176709 0,9.42353418 C0,14.1353013 2.57005478,16.2770136 8.99519172,16.2770136 Z" id="Path-5" stroke="#C5CFDE" stroke-width="2" fill="#FFFFFF"></path>
                        <path d="M0.428342463,8.99519172 C0.428342463,8.99519172 8.7243813,11.4235186 17.562041,11.5652465 C26.3997007,11.7069744 32.964227,9.70108545 35.5524244,7.71016433 C35.5524244,7.71016433 36.4529062,9.37546953 35.9807669,11.136904 C35.5086276,12.8983385 34.4043326,13.6739303 32.5540272,14.5636437 C28.1143914,16.6984284 24.5536222,15.8486711 17.9903834,15.8486711 C12.1701239,15.8486711 5.14010956,16.2770136 2.57005478,14.5636437 C4.70179451e-14,12.8502739 0.428342463,8.99519172 0.428342463,8.99519172 Z" id="Path-6" fill="#F5F6FA"></path>
                    </g>
                    <g id="Keyboard" transform="translate(22.273808, 176.177643)">
                        <g id="Group-2" transform="translate(6.425137, 0.000000)">
                            <g id="Rectangle-5">
                                <use fill="#FFFFFF" fill-rule="evenodd" xlink:href="#path-5"></use>
                                <rect stroke="#C5CFDE" stroke-width="2" x="1" y="1" width="8.28021911" height="3.99679448" rx="1.99839724"></rect>
                            </g>
                            <g id="Rectangle-5-Copy">
                                <use fill="#FFFFFF" fill-rule="evenodd" xlink:href="#path-6"></use>
                                <rect stroke="#C5CFDE" stroke-width="2" x="13.4219314" y="1" width="8.28021911" height="3.99679448" rx="1.99839724"></rect>
                            </g>
                            <g id="Rectangle-5-Copy-2">
                                <use fill="#FFFFFF" fill-rule="evenodd" xlink:href="#path-7"></use>
                                <rect stroke="#C5CFDE" stroke-width="2" x="25.8438629" y="1" width="8.28021911" height="3.99679448" rx="1.99839724"></rect>
                            </g>
                            <g id="Rectangle-5-Copy-4">
                                <use fill="#FFFFFF" fill-rule="evenodd" xlink:href="#path-8"></use>
                                <rect stroke="#C5CFDE" stroke-width="2" x="86.6684926" y="1" width="8.28021911" height="3.99679448" rx="1.99839724"></rect>
                            </g>
                            <g id="Rectangle-5-Copy-5">
                                <use fill="#FFFFFF" fill-rule="evenodd" xlink:href="#path-9"></use>
                                <rect stroke="#C5CFDE" stroke-width="2" x="99.090424" y="1" width="8.28021911" height="3.99679448" rx="1.99839724"></rect>
                            </g>
                            <g id="Rectangle-5-Copy-6">
                                <use fill="#FFFFFF" fill-rule="evenodd" xlink:href="#path-10"></use>
                                <rect stroke="#C5CFDE" stroke-width="2" x="140.639643" y="1" width="8.28021911" height="3.99679448" rx="1.99839724"></rect>
                            </g>
                            <g id="Rectangle-5-Copy-7">
                                <use fill="#FFFFFF" fill-rule="evenodd" xlink:href="#path-11"></use>
                                <rect stroke="#C5CFDE" stroke-width="2" x="128.217711" y="1" width="8.28021911" height="3.99679448" rx="1.99839724"></rect>
                            </g>
                            <g id="Rectangle-5-Copy-8">
                                <use fill="#FFFFFF" fill-rule="evenodd" xlink:href="#path-12"></use>
                                <rect stroke="#C5CFDE" stroke-width="2" x="115.79578" y="1" width="8.28021911" height="3.99679448" rx="1.99839724"></rect>
                            </g>
                            <g id="Rectangle-5-Copy-3">
                                <use fill="#FFFFFF" fill-rule="evenodd" xlink:href="#path-13"></use>
                                <rect stroke="#C5CFDE" stroke-width="2" x="38.2657943" y="1" width="44.260986" height="3.99679448" rx="1.99839724"></rect>
                            </g>
                        </g>
                        <g id="Group-3" transform="translate(0.000000, 2.998397)">
                            <g id="Rectangle-3">
                                <use fill="#FFFFFF" fill-rule="evenodd" xlink:href="#path-14"></use>
                                <rect stroke="#C5CFDE" stroke-width="2" x="1" y="1" width="160.770136" height="6.56684926" rx="3.28342463"></rect>
                            </g>
                            <rect id="Rectangle-4" fill="#C5CFDE" x="0.856684926" y="4.71176709" width="161.056766" height="1"></rect>
                        </g>
                    </g>
                    <g id="Сup" transform="translate(0.000000, 107.642848)">
                        <g id="Group" transform="translate(0.000000, 32.125685)">
                            <g id="Rectangle-2">
                                <use fill="#F5F6FA" fill-rule="evenodd" xlink:href="#path-15"></use>
                                <rect stroke="#C5CFDE" stroke-width="2" x="1" y="1" width="11.7069588" height="20.2738081" rx="5.85347941"></rect>
                            </g>
                            <g id="Rectangle-2-Copy">
                                <use fill="#FFFFFF" fill-rule="evenodd" xlink:href="#path-16"></use>
                                <rect stroke="#C5CFDE" stroke-width="2" x="3.57005478" y="3.57005478" width="6.56684926" height="15.1336985" rx="3.28342463"></rect>
                            </g>
                        </g>
                        <g id="Rectangle">
                            <use fill="#F5F6FA" fill-rule="evenodd" xlink:href="#path-17"></use>
                            <path stroke="#C5CFDE" stroke-width="2" d="M7.85347941,28.8423118 L7.85347941,47.9644524 C7.85347941,55.9374901 14.3080073,62.3946845 22.2738081,62.3946845 C30.2389989,62.3946845 36.6941367,55.9348592 36.6941367,47.9644524 L36.6941367,28.8423118 C36.6941367,27.181429 35.3540904,25.8438629 33.6938767,25.8438629 L10.8537394,25.8438629 C9.19691815,25.8438629 7.85347941,27.1865888 7.85347941,28.8423118 Z"></path>
                        </g>
                        <path d="M22.7021505,0 C22.7021505,0 28.2706026,0.856684926 28.2706026,5.99679448 C28.2706026,11.136904 17.562041,8.99519172 17.562041,15.4203287 C17.562041,21.8454656 23.130493,21.4171231 23.130493,21.4171231" id="Path-7" stroke="#C5CFDE" stroke-width="4" stroke-linecap="round"></path>
                        <path d="M10.2802191,25.7005478 C10.2802191,25.7005478 12.8502739,39.8358491 13.3493962,52.6718794 C13.6036609,59.2108552 14.7009446,62.5379996 14.9919862,62.5379996 C15.8486711,62.5379996 7.71016433,63.3946845 7.71016433,56.9695476 L7.71016433,26.5572327 C7.71016433,26.5572327 7.71016433,25.7005478 8.56684926,25.7005478 C9.42353418,25.7005478 10.2802191,25.7005478 10.2802191,25.7005478 Z" id="Path-8" fill="#EAECF2"></path>
                    </g>
                    <g id="Monitor" transform="translate(37.694137, 0.128890)">
                        <g id="Mac-Form">
                            <use fill="#FFFFFF" fill-rule="evenodd" xlink:href="#path-18"></use>
                            <rect stroke="#C5CFDE" stroke-width="2" x="1" y="1" width="184.757314" height="129.929479" rx="18"></rect>
                        </g>
                        <g id="Screen-Form">
                            <use fill="#FFFFFF" fill-rule="evenodd" xlink:href="#path-19"></use>
                            <rect stroke="#C5CFDE" stroke-width="2" x="9.56684926" y="9.56684926" width="167.623615" height="99.9455062"></rect>
                        </g>
                        <g id="Screen" transform="translate(9.423534, 9.423534)">
                            <mask id="mask-21" fill="white">
                                <use xlink:href="#path-20"></use>
                            </mask>
                            <use id="Mask" fill="#FFFFFF" xlink:href="#path-20"></use>
                            <g id="Terminal" mask="url(#mask-21)">
                                <rect id="Form" fill="#C5CFDE" x="0" y="0" width="83.9551227" height="100.232136"></rect>
                                <g id="Lines" transform="translate(6.425137, 7.710164)">
                                    <rect id="Rectangle-6" fill="#E0E4EC" x="0" y="6.85347941" width="17.1336985" height="2.57005478" rx="1.28502739"></rect>
                                    <rect id="Rectangle-6-Copy-16" fill="#7E8FA4" x="0" y="0" width="38.5508217" height="2.57005478" rx="1.28502739"></rect>
                                    <rect id="Rectangle-6-Copy" fill="#F5F6FA" x="0" y="13.7069588" width="34.267397" height="2.57005478" rx="1.28502739"></rect>
                                    <rect id="Rectangle-6-Copy-7" fill="#F5F6FA" x="0" y="41.1208764" width="17.1336985" height="2.57005478" rx="1.28502739"></rect>
                                    <rect id="Rectangle-6-Copy-9" fill="#7E8FA4" x="0" y="47.9743559" width="25.7005478" height="2.57005478" rx="1.28502739"></rect>
                                    <rect id="Rectangle-6-Copy-10" fill="#7E8FA4" x="0" y="63.3946845" width="17.1336985" height="2.57005478" rx="1.28502739"></rect>
                                    <rect id="Rectangle-6-Copy-11" fill="#E0E4EC" x="0" y="70.2481639" width="29.9839724" height="2.57005478" rx="1.28502739"></rect>
                                    <rect id="Rectangle-6-Copy-15" fill="#F5F6FA" x="0" y="83.9551227" width="21.4171231" height="2.57005478" rx="1.28502739"></rect>
                                    <rect id="Rectangle-6-Copy-12" fill="#E0E4EC" x="34.267397" y="70.2481639" width="21.4171231" height="2.57005478" rx="1.28502739"></rect>
                                    <rect id="Rectangle-6-Copy-14" fill="#7E8FA4" x="8.56684926" y="77.1016433" width="42.8342463" height="2.57005478" rx="1.28502739"></rect>
                                    <rect id="Rectangle-6-Copy-13" fill="#7E8FA4" x="55.6845202" y="77.1016433" width="8.56684926" height="2.57005478" rx="1.28502739"></rect>
                                    <rect id="Rectangle-6-Copy-8" fill="#F5F6FA" x="21.4171231" y="41.1208764" width="8.56684926" height="2.57005478" rx="1.28502739"></rect>
                                    <path d="M8.56684926,21.8454656 C8.56684926,21.1357646 9.13997684,20.5604382 9.84879317,20.5604382 L50.1191516,20.5604382 C50.8271497,20.5604382 51.4010956,21.1308167 51.4010956,21.8454656 L51.4010956,21.8454656 C51.4010956,22.5551666 50.827968,23.130493 50.1191516,23.130493 L9.84879317,23.130493 C9.1407951,23.130493 8.56684926,22.5601145 8.56684926,21.8454656 L8.56684926,21.8454656 Z" id="Rectangle-6-Copy-2" fill="#F5F6FA"></path>
                                    <path d="M8.56684926,35.5524244 C8.56684926,34.8427234 9.14410766,34.267397 9.85026924,34.267397 L58.6845248,34.267397 C59.3933381,34.267397 59.9679448,34.8377755 59.9679448,35.5524244 L59.9679448,35.5524244 C59.9679448,36.2621255 59.3906864,36.8374518 58.6845248,36.8374518 L9.85026924,36.8374518 C9.14145596,36.8374518 8.56684926,36.2670734 8.56684926,35.5524244 L8.56684926,35.5524244 Z" id="Rectangle-6-Copy-6" fill="#7E8FA4"></path>
                                    <path d="M8.56684926,28.698945 C8.56684926,27.989244 9.13559026,27.4139176 9.8459624,27.4139176 L20.13801,27.4139176 C20.8444447,27.4139176 21.4171231,27.9842961 21.4171231,28.698945 L21.4171231,28.698945 C21.4171231,29.408646 20.8483822,29.9839724 20.13801,29.9839724 L9.8459624,29.9839724 C9.13952772,29.9839724 8.56684926,29.413594 8.56684926,28.698945 L8.56684926,28.698945 Z" id="Rectangle-6-Copy-3" fill="#E0E4EC"></path>
                                    <path d="M25.7005478,28.698945 C25.7005478,27.989244 26.2736754,27.4139176 26.9824917,27.4139176 L67.2528502,27.4139176 C67.9608482,27.4139176 68.5347941,27.9842961 68.5347941,28.698945 L68.5347941,28.698945 C68.5347941,29.408646 67.9616665,29.9839724 67.2528502,29.9839724 L26.9824917,29.9839724 C26.2744936,29.9839724 25.7005478,29.413594 25.7005478,28.698945 L25.7005478,28.698945 Z" id="Rectangle-6-Copy-4" fill="#E0E4EC"></path>
                                </g>
                            </g>
                            <g id="Text" mask="url(#mask-21)">
                                <g transform="translate(100.232136, 35.552424)">
                                    <g id="Group-5" stroke-width="1" fill="none">
                                        <path d="M8.91666871e-17,2.57005478 C-1.729446e-14,1.15065272 1.1456531,0 2.56657444,0 L48.8345211,0 C50.252001,0 51.4010956,1.14075691 51.4010956,2.57005478 L51.4010956,2.57005478 C51.4010956,3.98945684 50.2554425,5.14010956 48.8345211,5.14010956 L2.56657444,5.14010956 C1.14909452,5.14010956 1.75939889e-14,3.99935265 8.91666871e-17,2.57005478 L8.91666871e-17,2.57005478 Z" id="Rectangle-6-Copy-17" fill="#7E8FA4"></path>
                                        <path d="M8.91666871e-17,8.56684926 C-1.729446e-14,7.85714823 0.577258397,7.28182187 1.28341998,7.28182187 L50.1176756,7.28182187 C50.8264889,7.28182187 51.4010956,7.85220032 51.4010956,8.56684926 L51.4010956,8.56684926 C51.4010956,9.27655029 50.8238372,9.85187665 50.1176756,9.85187665 L1.28341998,9.85187665 C0.574606699,9.85187665 1.75939889e-14,9.28149819 8.91666871e-17,8.56684926 L8.91666871e-17,8.56684926 Z" id="Rectangle-6-Copy-18" fill="#7E8FA4"></path>
                                    </g>
                                    <g id="Group-4" stroke-width="1" fill="none" transform="translate(0.000000, 14.135301)">
                                        <path d="M8.91666871e-17,1.07085616 C-1.729446e-14,0.479438632 0.476028465,0 1.07358493,0 L50.3275106,0 C50.9204352,0 51.4010956,0.475315378 51.4010956,1.07085616 L51.4010956,1.07085616 C51.4010956,1.66227368 50.9250671,2.14171231 50.3275106,2.14171231 L1.07358493,2.14171231 C0.480660346,2.14171231 1.75939889e-14,1.66639694 8.91666871e-17,1.07085616 L8.91666871e-17,1.07085616 Z" id="Rectangle-6-Copy-20" fill="#C5CFDE"></path>
                                        <path d="M5.94444581e-17,5.35428079 C-1.152964e-14,4.76286326 0.484414698,4.28342463 1.06313144,4.28342463 L33.2042656,4.28342463 C33.7914169,4.28342463 34.267397,4.75874001 34.267397,5.35428079 L34.267397,5.35428079 C34.267397,5.94569831 33.7829823,6.42513694 33.2042656,6.42513694 L1.06313144,6.42513694 C0.475980157,6.42513694 1.17293259e-14,5.94982157 5.94444581e-17,5.35428079 L5.94444581e-17,5.35428079 Z" id="Rectangle-6-Copy-19" fill="#C5CFDE"></path>
                                    </g>
                                    <path d="M2.9722229e-17,26.9855752 C-5.76482001e-15,25.8027401 0.957895564,24.8438629 2.13535173,24.8438629 L14.9983468,24.8438629 C16.177669,24.8438629 17.1336985,25.7944936 17.1336985,26.9855752 L17.1336985,26.9855752 C17.1336985,28.1684102 16.175803,29.1272875 14.9983468,29.1272875 L2.13535173,29.1272875 C0.956029533,29.1272875 5.86466296e-15,28.1766567 2.9722229e-17,26.9855752 L2.9722229e-17,26.9855752 Z" id="Rectangle-6-Copy-21" fill="#5694ED"></path>
                                </g>
                            </g>
                        </g>
                        <g id="Apple-Logo">
                            <use fill="#F5F6FA" fill-rule="evenodd" xlink:href="#path-22"></use>
                            <circle stroke="#C5CFDE" stroke-width="2" cx="93.3786569" cy="120.792575" r="3.28342463"></circle>
                        </g>
                        <circle id="Camera" fill="#7E8FA4" cx="93.3786569" cy="4.71176709" r="1"></circle>
                    </g>
                    <g id="Tablet" transform="translate(188.899026, 68.235342)">
                        <g id="Form">
                            <use fill="black" fill-opacity="1" filter="url(#filter-24)" xlink:href="#path-23"></use>
                            <use fill="#F5F6FA" fill-rule="evenodd" xlink:href="#path-23"></use>
                            <rect stroke="#C5CFDE" stroke-width="2" x="1" y="1" width="48.5444106" height="69.1048488" rx="4"></rect>
                        </g>
                        <g id="Rows" transform="translate(5.140110, 13.706959)">
                            <path d="M8.56684926,35.124082 L14.9919862,35.124082 L14.9919862,36.4091094 L8.56684926,36.4091094 L8.56684926,35.124082 Z M16.2770136,35.124082 L24.8438629,35.124082 L24.8438629,36.4091094 L16.2770136,36.4091094 L16.2770136,35.124082 Z M26.1288902,35.124082 L32.5540272,35.124082 L32.5540272,36.4091094 L26.1288902,36.4091094 L26.1288902,35.124082 Z" id="8" fill="#7E8FA4"></path>
                            <rect id="7" fill="#C5CFDE" x="8.56684926" y="32.1256847" width="23.5588355" height="1.28502739"></rect>
                            <path d="M8.56684926,25.2722053 L14.9919862,25.2722053 L14.9919862,26.5572327 L8.56684926,26.5572327 L8.56684926,25.2722053 Z M16.2770136,25.2722053 L22.7021505,25.2722053 L22.7021505,26.5572327 L16.2770136,26.5572327 L16.2770136,25.2722053 Z M23.9871779,25.2722053 L36.8374518,25.2722053 L36.8374518,26.5572327 L23.9871779,26.5572327 L23.9871779,25.2722053 Z" id="6" fill="#7E8FA4"></path>
                            <rect id="5" fill="#C5CFDE" x="8.56684926" y="22.2738081" width="10.7085616" height="1.28502739"></rect>
                            <path d="M8.56684926,14.5636437 L25.7005478,14.5636437 L25.7005478,15.8486711 L8.56684926,15.8486711 L8.56684926,14.5636437 Z M26.9855752,14.5636437 L31.2689998,14.5636437 L31.2689998,15.8486711 L26.9855752,15.8486711 L26.9855752,14.5636437 Z" id="4" fill="#7E8FA4"></path>
                            <rect id="3" fill="#C5CFDE" x="8.56684926" y="11.5652465" width="19.2754108" height="1.28502739"></rect>
                            <rect id="2" fill="#7E8FA4" x="8.56684926" y="4.28342463" width="27.8422601" height="1.28502739"></rect>
                            <rect id="1" fill="#C5CFDE" x="8.56684926" y="1.28502739" width="19.2754108" height="1.28502739"></rect>
                            <path d="M6.27212369,0.436886776 L5.69574987,0.058204923 C5.53630681,-0.0462590365 5.31803697,-0.00615233776 5.21131298,0.146812746 L2.38602046,4.17644781 L1.08765244,2.92070396 C0.951997249,2.7895022 0.730834288,2.7895022 0.5951791,2.92070396 L0.101741391,3.39794258 C-0.033913797,3.52914434 -0.033913797,3.74273583 0.101741391,3.87518121 L2.09831573,5.80620994 C2.21018304,5.91440475 2.38602046,5.99679448 2.54417769,5.99679448 C2.70233492,5.99679448 2.86177799,5.90103585 2.96464448,5.75646519 L6.36502499,0.904487357 C6.47303481,0.751522274 6.43156676,0.541350736 6.27212369,0.436886776 Z" id="Fill-1" fill="#5694ED"></path>
                            <path d="M6.27212369,10.7171059 L5.69574987,10.338424 C5.53630681,10.2339601 5.31803697,10.2740668 5.21131298,10.4270319 L2.38602046,14.4566669 L1.08765244,13.2009231 C0.951997249,13.0697213 0.730834288,13.0697213 0.5951791,13.2009231 L0.101741391,13.6781617 C-0.033913797,13.8093635 -0.033913797,14.0229549 0.101741391,14.1554003 L2.09831573,16.086429 C2.21018304,16.1946239 2.38602046,16.2770136 2.54417769,16.2770136 C2.70233492,16.2770136 2.86177799,16.181255 2.96464448,16.0366843 L6.36502499,11.1847065 C6.47303481,11.0317414 6.43156676,10.8215698 6.27212369,10.7171059 Z" id="Fill-1-Copy" fill="#5694ED"></path>
                            <path d="M6.27212369,20.997325 L5.69574987,20.6186431 C5.53630681,20.5141792 5.31803697,20.5542859 5.21131298,20.707251 L2.38602046,24.736886 L1.08765244,23.4811422 C0.951997249,23.3499404 0.730834288,23.3499404 0.5951791,23.4811422 L0.101741391,23.9583808 C-0.033913797,24.0895826 -0.033913797,24.3031741 0.101741391,24.4356194 L2.09831573,26.3666482 C2.21018304,26.474843 2.38602046,26.5572327 2.54417769,26.5572327 C2.70233492,26.5572327 2.86177799,26.4614741 2.96464448,26.3169034 L6.36502499,21.4649256 C6.47303481,21.3119605 6.43156676,21.101789 6.27212369,20.997325 Z" id="Fill-1-Copy-2" fill="#5694ED"></path>
                            <path d="M6.27212369,31.2775441 L5.69574987,30.8988623 C5.53630681,30.7943983 5.31803697,30.834505 5.21131298,30.9874701 L2.38602046,35.0171051 L1.08765244,33.7613613 C0.951997249,33.6301595 0.730834288,33.6301595 0.5951791,33.7613613 L0.101741391,34.2385999 C-0.033913797,34.3698017 -0.033913797,34.5833932 0.101741391,34.7158385 L2.09831573,36.6468673 C2.21018304,36.7550621 2.38602046,36.8374518 2.54417769,36.8374518 C2.70233492,36.8374518 2.86177799,36.7416932 2.96464448,36.5971225 L6.36502499,31.7451447 C6.47303481,31.5921796 6.43156676,31.3820081 6.27212369,31.2775441 Z" id="Fill-1-Copy-3" fill="#5694ED"></path>
                            <path d="M8.56684926,45.4043011 L14.9919862,45.4043011 L14.9919862,46.6893285 L8.56684926,46.6893285 L8.56684926,45.4043011 Z M16.2770136,45.4043011 L37.6941367,45.4043011 L37.6941367,46.6893285 L16.2770136,46.6893285 L16.2770136,45.4043011 Z" id="8-copy" fill="#7E8FA4"></path>
                            <rect id="7-copy" fill="#C5CFDE" x="8.56684926" y="42.4059038" width="10.7085616" height="1.28502739"></rect>
                            <path d="M6.27212369,41.5577632 L5.69574987,41.1790814 C5.53630681,41.0746174 5.31803697,41.1147241 5.21131298,41.2676892 L2.38602046,45.2973242 L1.08765244,44.0415804 C0.951997249,43.9103786 0.730834288,43.9103786 0.5951791,44.0415804 L0.101741391,44.518819 C-0.033913797,44.6500208 -0.033913797,44.8636123 0.101741391,44.9960577 L2.09831573,46.9270864 C2.21018304,47.0352812 2.38602046,47.1176709 2.54417769,47.1176709 C2.70233492,47.1176709 2.86177799,47.0219123 2.96464448,46.8773416 L6.36502499,42.0253638 C6.47303481,41.8723987 6.43156676,41.6622272 6.27212369,41.5577632 Z" id="Fill-1-Copy-4" fill="#5694ED"></path>
                        </g>
                        <g id="Dots" transform="translate(0.856685, 0.856685)">
                            <path d="M0,2.00854553 C0,0.899256465 0.889238419,0 2.00527134,0 L46.8257694,0 C47.9332502,0 48.8310408,0.900611177 48.8310408,2.00854553 L48.8310408,8.56684926 L0,8.56684926 L0,2.00854553 Z" id="Substrate" fill="#E0E4EC"></path>
                            <circle id="3" fill="#7E8FA4" cx="12.4219314" cy="4.28342463" r="1.28502739"></circle>
                            <circle id="2" fill="#7E8FA4" cx="8.99519172" cy="4.28342463" r="1.28502739"></circle>
                            <circle id="1" fill="#7E8FA4" cx="5.56845202" cy="4.28342463" r="1.28502739"></circle>
                        </g>
                    </g>
                </g>
            </g>
        </g>
    </g>
</svg>